<svg xmlns="http://www.w3.org/2000/svg" viewBox="0 0 1200 760" role="img" aria-label="Activos">
  <defs>
    <linearGradient id="bg" x1="0" x2="1" y1="0" y2="1">
      <stop offset="0" stop-color="#0b2538"/>
      <stop offset="0.58" stop-color="#143f52"/>
      <stop offset="1" stop-color="#0f766e"/>
    </linearGradient>
    <filter id="shadow" x="-20%" y="-20%" width="140%" height="140%">
      <feDropShadow dx="0" dy="22" stdDeviation="24" flood-color="#03111f" flood-opacity="0.28"/>
    </filter>
  </defs>
  <rect width="1200" height="760" rx="34" fill="url(#bg)"/>
  <circle cx="1010" cy="140" r="170" fill="#c9a84c" opacity="0.16"/>
  <circle cx="160" cy="665" r="210" fill="#54d89d" opacity="0.14"/>
  <g filter="url(#shadow)">
    <rect x="54" y="54" width="1092" height="652" rx="24" fill="#f8fbfc"/>
    <rect x="54" y="54" width="1092" height="66" rx="24" fill="#10283d"/>
    <rect x="54" y="96" width="1092" height="24" fill="#10283d"/>
    <circle cx="92" cy="87" r="9" fill="#f06a5b"/>
    <circle cx="124" cy="87" r="9" fill="#f7c75f"/>
    <circle cx="156" cy="87" r="9" fill="#54d89d"/>
    <text x="204" y="92" fill="#f8fbfc" font-family="Arial, sans-serif" font-size="22" font-weight="800">Balance_General.xlsx</text>
    <text x="74" y="164" fill="#0f766e" font-family="Arial, sans-serif" font-size="16" font-weight="800" letter-spacing="2">ACTIVOS</text>
    <text x="74" y="204" fill="#0d2235" font-family="Arial, sans-serif" font-size="34" font-weight="900"></text>
    <text x="74" y="228" fill="#526173" font-family="Arial, sans-serif" font-size="15" font-weight="600"></text>
    <g font-family="Arial, sans-serif"><rect x="74" y="238" width="260" height="44" fill="#f7fbff" stroke="#d9e2ea" />
<rect x="334" y="238" width="260" height="44" fill="#f7fbff" stroke="#d9e2ea" />
<rect x="594" y="238" width="260" height="44" fill="#f7fbff" stroke="#d9e2ea" />
<text x="608" y="265" fill="#0d2235" font-size="15" font-weight="800">Categoría</text>
<rect x="854" y="238" width="180" height="44" fill="#f7fbff" stroke="#d9e2ea" />
<text x="868" y="265" fill="#0d2235" font-size="15" font-weight="800">Cuenta / Ítem</text>
<rect x="1034" y="238" width="140" height="44" fill="#f7fbff" stroke="#d9e2ea" />
<text x="1048" y="265" fill="#0d2235" font-size="15" font-weight="800">Descripción</text>
<rect x="1174" y="238" width="180" height="44" fill="#f7fbff" stroke="#d9e2ea" />
<text x="1188" y="265" fill="#0d2235" font-size="15" font-weight="800">Monto</text>
<rect x="74" y="282" width="260" height="44" fill="#e9f6f2" stroke="#d9e2ea" />
<rect x="334" y="282" width="260" height="44" fill="#e9f6f2" stroke="#d9e2ea" />
<rect x="594" y="282" width="260" height="44" fill="#e9f6f2" stroke="#d9e2ea" />
<text x="608" y="309" fill="#243447" font-size="15" font-weight="600">Activo corriente</text>
<rect x="854" y="282" width="180" height="44" fill="#e9f6f2" stroke="#d9e2ea" />
<text x="868" y="309" fill="#243447" font-size="15" font-weight="600">Caja</text>
<rect x="1034" y="282" width="140" height="44" fill="#e9f6f2" stroke="#d9e2ea" />
<text x="1048" y="309" fill="#243447" font-size="15" font-weight="600">Dinero en efectivo disponible</text>
<rect x="1174" y="282" width="180" height="44" fill="#e9f6f2" stroke="#d9e2ea" />
<text x="1188" y="309" fill="#243447" font-size="15" font-weight="600">$1.200.000</text>
<rect x="74" y="326" width="260" height="44" fill="#ffffff" stroke="#d9e2ea" />
<rect x="334" y="326" width="260" height="44" fill="#ffffff" stroke="#d9e2ea" />
<rect x="594" y="326" width="260" height="44" fill="#ffffff" stroke="#d9e2ea" />
<text x="608" y="353" fill="#243447" font-size="15" font-weight="600">Activo corriente</text>
<rect x="854" y="326" width="180" height="44" fill="#ffffff" stroke="#d9e2ea" />
<text x="868" y="353" fill="#243447" font-size="15" font-weight="600">Banco</text>
<rect x="1034" y="326" width="140" height="44" fill="#ffffff" stroke="#d9e2ea" />
<text x="1048" y="353" fill="#243447" font-size="15" font-weight="600">Saldo en cuenta bancaria</text>
<rect x="1174" y="326" width="180" height="44" fill="#ffffff" stroke="#d9e2ea" />
<text x="1188" y="353" fill="#243447" font-size="15" font-weight="600">$8.500.000</text>
<rect x="74" y="370" width="260" height="44" fill="#e9f6f2" stroke="#d9e2ea" />
<rect x="334" y="370" width="260" height="44" fill="#e9f6f2" stroke="#d9e2ea" />
<rect x="594" y="370" width="260" height="44" fill="#e9f6f2" stroke="#d9e2ea" />
<text x="608" y="397" fill="#243447" font-size="15" font-weight="600">Activo corriente</text>
<rect x="854" y="370" width="180" height="44" fill="#e9f6f2" stroke="#d9e2ea" />
<text x="868" y="397" fill="#243447" font-size="15" font-weight="600">Clientes por cobrar</text>
<rect x="1034" y="370" width="140" height="44" fill="#e9f6f2" stroke="#d9e2ea" />
<text x="1048" y="397" fill="#243447" font-size="15" font-weight="600">Ventas pendientes de cobro</text>
<rect x="1174" y="370" width="180" height="44" fill="#e9f6f2" stroke="#d9e2ea" />
<text x="1188" y="397" fill="#243447" font-size="15" font-weight="600">$3.200.000</text>
<rect x="74" y="414" width="260" height="44" fill="#ffffff" stroke="#d9e2ea" />
<rect x="334" y="414" width="260" height="44" fill="#ffffff" stroke="#d9e2ea" />
<rect x="594" y="414" width="260" height="44" fill="#ffffff" stroke="#d9e2ea" />
<text x="608" y="441" fill="#243447" font-size="15" font-weight="600">Activo corriente</text>
<rect x="854" y="414" width="180" height="44" fill="#ffffff" stroke="#d9e2ea" />
<text x="868" y="441" fill="#243447" font-size="15" font-weight="600">Inventario</text>
<rect x="1034" y="414" width="140" height="44" fill="#ffffff" stroke="#d9e2ea" />
<text x="1048" y="441" fill="#243447" font-size="15" font-weight="600">Mercadería o productos disponibl</text>
<rect x="1174" y="414" width="180" height="44" fill="#ffffff" stroke="#d9e2ea" />
<text x="1188" y="441" fill="#243447" font-size="15" font-weight="600">$4.600.000</text>
<rect x="74" y="458" width="260" height="44" fill="#e9f6f2" stroke="#d9e2ea" />
<rect x="334" y="458" width="260" height="44" fill="#e9f6f2" stroke="#d9e2ea" />
<rect x="594" y="458" width="260" height="44" fill="#e9f6f2" stroke="#d9e2ea" />
<text x="608" y="485" fill="#243447" font-size="15" font-weight="600">Activo no corriente</text>
<rect x="854" y="458" width="180" height="44" fill="#e9f6f2" stroke="#d9e2ea" />
<text x="868" y="485" fill="#243447" font-size="15" font-weight="600">Equipos</text>
<rect x="1034" y="458" width="140" height="44" fill="#e9f6f2" stroke="#d9e2ea" />
<text x="1048" y="485" fill="#243447" font-size="15" font-weight="600">Equipos usados en el negocio</text>
<rect x="1174" y="458" width="180" height="44" fill="#e9f6f2" stroke="#d9e2ea" />
<text x="1188" y="485" fill="#243447" font-size="15" font-weight="600">$3.500.000</text>
<rect x="74" y="502" width="260" height="44" fill="#ffffff" stroke="#d9e2ea" />
<rect x="334" y="502" width="260" height="44" fill="#ffffff" stroke="#d9e2ea" />
<rect x="594" y="502" width="260" height="44" fill="#ffffff" stroke="#d9e2ea" />
<text x="608" y="529" fill="#243447" font-size="15" font-weight="600">Activo no corriente</text>
<rect x="854" y="502" width="180" height="44" fill="#ffffff" stroke="#d9e2ea" />
<text x="868" y="529" fill="#243447" font-size="15" font-weight="600">Muebles</text>
<rect x="1034" y="502" width="140" height="44" fill="#ffffff" stroke="#d9e2ea" />
<text x="1048" y="529" fill="#243447" font-size="15" font-weight="600">Mobiliario de oficina o local</text>
<rect x="1174" y="502" width="180" height="44" fill="#ffffff" stroke="#d9e2ea" />
<text x="1188" y="529" fill="#243447" font-size="15" font-weight="600">$1.800.000</text>
<rect x="74" y="546" width="260" height="44" fill="#e9f6f2" stroke="#d9e2ea" />
<rect x="334" y="546" width="260" height="44" fill="#e9f6f2" stroke="#d9e2ea" />
<rect x="594" y="546" width="260" height="44" fill="#e9f6f2" stroke="#d9e2ea" />
<text x="608" y="573" fill="#243447" font-size="15" font-weight="600">Activo no corriente</text>
<rect x="854" y="546" width="180" height="44" fill="#e9f6f2" stroke="#d9e2ea" />
<text x="868" y="573" fill="#243447" font-size="15" font-weight="600">Maquinaria</text>
<rect x="1034" y="546" width="140" height="44" fill="#e9f6f2" stroke="#d9e2ea" />
<text x="1048" y="573" fill="#243447" font-size="15" font-weight="600">Herramientas o maquinaria produc</text>
<rect x="1174" y="546" width="180" height="44" fill="#e9f6f2" stroke="#d9e2ea" />
<text x="1188" y="573" fill="#243447" font-size="15" font-weight="600">$5.200.000</text>
<rect x="74" y="590" width="260" height="44" fill="#ffffff" stroke="#d9e2ea" />
<rect x="334" y="590" width="260" height="44" fill="#ffffff" stroke="#d9e2ea" />
<rect x="594" y="590" width="260" height="44" fill="#ffffff" stroke="#d9e2ea" />
<text x="608" y="617" fill="#243447" font-size="15" font-weight="600">Activo corriente</text>
<rect x="854" y="590" width="180" height="44" fill="#ffffff" stroke="#d9e2ea" />
<text x="868" y="617" fill="#243447" font-size="15" font-weight="600">Computadores</text>
<rect x="1034" y="590" width="140" height="44" fill="#ffffff" stroke="#d9e2ea" />
<rect x="1174" y="590" width="180" height="44" fill="#ffffff" stroke="#d9e2ea" />
<text x="1188" y="617" fill="#243447" font-size="15" font-weight="600">$4.000.000</text></g>
  </g>
</svg>
